<svg id="uuid-26dc8e32-6d51-4cb4-a9e3-fc518a7e2bec" xmlns="http://www.w3.org/2000/svg" viewBox="0 0 344 411"><defs><style>.uuid-fc0cdfb2-444f-47d8-976b-ec27100b9def{stroke:#000;stroke-miterlimit:10;}.uuid-fc0cdfb2-444f-47d8-976b-ec27100b9def,.uuid-aad06549-72f7-4e40-94ab-0abd0e0b0a40{fill:#000;}.uuid-aad06549-72f7-4e40-94ab-0abd0e0b0a40{stroke-width:0px;}</style></defs><rect class="uuid-fc0cdfb2-444f-47d8-976b-ec27100b9def" x="85.87" y="129.4" width="23.9" height="173.77" rx="1.55" ry="1.55"/><rect class="uuid-fc0cdfb2-444f-47d8-976b-ec27100b9def" x="219.66" y="129.4" width="23.9" height="173.77" rx="1.55" ry="1.55"/><rect class="uuid-fc0cdfb2-444f-47d8-976b-ec27100b9def" x="152.98" y="129.16" width="22.79" height="176.42" rx="1.55" ry="1.55"/><rect class="uuid-fc0cdfb2-444f-47d8-976b-ec27100b9def" x="117.61" y="191.15" width="22.79" height="81.59" rx="1.55" ry="1.55" transform="translate(-136.37 227.7) rotate(-60)"/><rect class="uuid-fc0cdfb2-444f-47d8-976b-ec27100b9def" x="182.04" y="194.85" width="22.79" height="81.59" rx="1.55" ry="1.55" transform="translate(86.08 520.99) rotate(-120)"/><path class="uuid-aad06549-72f7-4e40-94ab-0abd0e0b0a40" d="M166.27,316.35l9.35-10.68c1.42-1.62.27-4.16-1.89-4.16h-18.69c-2.15,0-3.31,2.54-1.89,4.16l9.35,10.68c1,1.14,2.78,1.14,3.77,0Z"/><path class="uuid-aad06549-72f7-4e40-94ab-0abd0e0b0a40" d="M241.96,290.54l-18.46-4.1c-2.44-.54-4.2,2.29-2.63,4.24l18.53,23.01c1.57,1.95,4.72.83,4.71-1.67l-.07-18.91c0-1.24-.86-2.3-2.07-2.57Z"/><path class="uuid-aad06549-72f7-4e40-94ab-0abd0e0b0a40" d="M236.15,294.5l-15.05,4.25c-2.28.64-2.63,3.73-.55,4.87l19.59,10.72c2.08,1.14,4.49-.82,3.8-3.09l-4.54-14.97c-.42-1.38-1.86-2.17-3.25-1.78Z"/><path class="uuid-aad06549-72f7-4e40-94ab-0abd0e0b0a40" d="M87.5,290.52l18.46-4.1c2.44-.54,4.2,2.29,2.63,4.24l-18.53,23.01c-1.57,1.95-4.72.83-4.71-1.67l.07-18.91c0-1.24.86-2.3,2.07-2.57Z"/><path class="uuid-aad06549-72f7-4e40-94ab-0abd0e0b0a40" d="M93.31,294.48l15.05,4.25c2.28.64,2.63,3.73.55,4.87l-19.59,10.72c-2.08,1.14-4.49-.82-3.8-3.09l4.54-14.97c.42-1.38,1.86-2.17,3.25-1.78Z"/><path class="uuid-aad06549-72f7-4e40-94ab-0abd0e0b0a40" d="M164.39,125.11l-9.35,10.68c-1.42,1.62-.27,4.16,1.89,4.16h18.69c2.15,0,3.31-2.54,1.89-4.16l-9.35-10.68c-1-1.14-2.78-1.14-3.77,0Z"/><path class="uuid-aad06549-72f7-4e40-94ab-0abd0e0b0a40" d="M88.7,150.92l18.46,4.1c2.44.54,4.2-2.29,2.63-4.24l-18.53-23.01c-1.57-1.95-4.72-.83-4.71,1.67l.07,18.91c0,1.24.86,2.3,2.07,2.57Z"/><path class="uuid-aad06549-72f7-4e40-94ab-0abd0e0b0a40" d="M94.51,146.96l15.05-4.25c2.28-.64,2.63-3.73.55-4.87l-19.59-10.72c-2.08-1.14-4.49.82-3.8,3.09l4.54,14.97c.42,1.38,1.86,2.17,3.25,1.78Z"/><path class="uuid-aad06549-72f7-4e40-94ab-0abd0e0b0a40" d="M243.16,150.94l-18.46,4.1c-2.44.54-4.2-2.29-2.63-4.24l18.53-23.01c1.57-1.95,4.72-.83,4.71,1.67l-.07,18.91c0,1.24-.86,2.3-2.07,2.57Z"/><path class="uuid-aad06549-72f7-4e40-94ab-0abd0e0b0a40" d="M237.35,146.98l-15.05-4.25c-2.28-.64-2.63-3.73-.55-4.87l19.59-10.72c2.08-1.14,4.49.82,3.8,3.09l-4.54,14.97c-.42,1.38-1.86,2.17-3.25,1.78Z"/></svg>
