<svg xmlns="http://www.w3.org/2000/svg" viewBox="0 0 150 150" fill="none">
  <path d="M130.7 32.9c-.1-.9-.9-1.3-1.5-1.4-.6-.1-13.6-1-13.6-1s-8.5-8.5-9.4-9.4c-.9-.9-2.7-.6-3.4-.4-.1 0-1.7.5-4.4 1.3-1.2-3.5-3.3-6.7-7-6.7h-.3c-1.1-1.4-2.5-2.1-3.9-2.1-9.8 0-14.5 12.3-16 18.5-5.1 1.6-8.7 2.7-9.1 2.8-2.8.9-2.9.9-3.3 3.5-.3 2-8.1 62.4-8.1 62.4L92.4 109l38.3-7.8s-21.3-59.3-21.4-60.1zM78.8 23.2c1.4 1.6 3 3.4 4.8 5.4-3.8 1.2-7.9 2.4-12.1 3.7 2.3-5.8 5.1-8.7 7.3-9.1zm9.5 27.4c-.7 0-1.3 0-2-.1-3.7-.6-5.8-3.3-6.8-6.5-.6-1.9-.9-4.4-.7-7.6.8-10.7 4.5-15.2 8.5-15.2.3 0 .6 0 .9.1 6.3 1.5 7.9 15.9 7.9 16 .1 4.9-4.4 9.3-7.8 13.3zm7.5-35.3c-.5 0-1 .1-1.5.2-1.2.4-2.4 1.4-3.5 2.9.2-3.2 1.1-6.4 2.8-8.6.5-.6 1.2-1.2 2-1.7.8 1.3 1.3 3.5 1.3 6.4 0 .3-.1.5-.1.8zM64.2 37.1c2.4-6.2 6.4-9 7.3-9.1.2 2 .7 3.9 1.4 5.7-3.8 1.2-7.8 2.4-8.7 3.4zm-3.4 40.5c-1.1-.8-1.7-1.9-1.7-3.1 0-3.3 2.9-5.3 7.7-5.3 2.8 0 6.2.6 9.1 1.5v7c-6.8-1.5-13.4-.1-15.1-1.1zm25.8-9.3c-.4-.2-.8-.4-1.2-.6V48.3c.4 0 .8.1 1.2.1 3 0 6.1-.8 8.9-2.4-.4 9.1-5 14.9-8.9 16.3zm5.5-27.7c-.4 0-.8-.1-1.3-.2-3.2-.8-5.3-3.5-6.5-6.4-.7-1.6-1-3.7-.8-6.4.7-9 3.8-12.8 7.3-12.8.4 0 .8.1 1.1.2 5.3 1.3 6.6 14.2 6.6 15.2.1 4.1-3.7 7.8-6.4 10.4z" fill="#95BF47"/>
  <path d="M130.7 32.9c-.1-.9-.9-1.3-1.5-1.4-.6-.1-13.6-1-13.6-1s-8.5-8.5-9.4-9.4c-.9-.9-2.7-.6-3.4-.4-.1 0-1.7.5-4.4 1.3-1.2-3.5-3.3-6.7-7-6.7h-.3c-1.1-1.4-2.5-2.1-3.9-2.1-9.8 0-14.5 12.3-16 18.5-5.1 1.6-8.7 2.7-9.1 2.8-2.8.9-2.9.9-3.3 3.5-.3 2-8.1 62.4-8.1 62.4L92.4 109l38.3-7.8s-21.3-59.3-21.4-60.1z" fill="#5E8E3E"/>
  <path d="M87.1 50.8l-6.9 20.7s-3.2-1.7-7.1-1.7c-5.8 0-6.1 3.6-6.1 4.5 0 5 13 6.9 13 18.6 0 9.2-5.8 15.1-13.7 15.1-9.4 0-14.2-5.9-14.2-5.9l2.5-8.4s4.9 4.2 9 4.2c2.7 0 3.8-2.1 3.8-3.7 0-6.5-10.7-6.8-10.7-17.5 0-9 6.5-17.7 19.5-17.7 5 .1 7.5 1.4 7.5 1.4l3.4-9.6z" fill="#fff"/>
</svg>
